<svg width="111" height="98" viewBox="0 0 111 98" fill="none" xmlns="http://www.w3.org/2000/svg">
<path d="M86.3334 30.625C86.3334 35.6992 90.4747 39.8125 95.5834 39.8125C100.692 39.8125 104.833 35.6973 104.833 30.625C104.833 25.5527 100.692 21.4375 95.5834 21.4375C90.4747 21.4375 86.3334 25.5527 86.3334 30.625ZM95.5834 24.5C98.9827 24.5 101.75 27.2486 101.75 30.4527C101.75 33.6569 98.9827 36.5777 95.5834 36.5777C92.184 36.5777 89.4167 33.8291 89.4167 30.4527C89.4167 27.0763 92.1917 24.5 95.5834 24.5ZM21.5834 79.625C16.4747 79.625 12.3334 83.7383 12.3334 88.6402C12.3334 93.5421 16.4747 97.8277 21.5834 97.8277C26.6921 97.8277 30.8334 93.8848 30.8334 88.8125C30.8334 83.7402 26.6901 79.625 21.5834 79.625ZM21.5834 94.9375C18.184 94.9375 15.4167 92.1889 15.4167 88.8125C15.4167 85.4361 18.184 82.6875 21.5834 82.6875C24.9827 82.6875 27.75 85.4361 27.75 88.8125C27.75 92.1889 24.975 94.9375 21.5834 94.9375ZM96.9516 58.1875C98.2595 56.4581 98.7688 54.2618 98.351 52.1027C97.838 48.5215 94.5813 45.9375 90.7849 45.9375H66.4844C67.8863 44.0508 68.4192 41.5198 67.6636 39.0852C66.6492 35.8542 63.688 33.6913 60.2886 33.6913C59.5292 33.6913 58.7718 33.8027 58.0397 34.0223L37.0964 40.3867C25.9501 44.0789 18.5058 54.2962 18.5058 65.8246V72.0511C18.5058 72.9484 19.3005 73.6305 20.1997 73.5486C20.211 73.5475 20.188 73.5494 20.1997 73.5486C20.9788 73.4795 21.5891 72.8245 21.5891 72.0476V65.8231C21.5891 55.6058 28.147 46.5676 38.006 43.2946L58.7606 36.9303C59.2143 36.7946 59.6716 36.7295 60.1206 36.7299C62.1055 36.7299 63.9285 37.9924 64.5471 39.9628C65.2998 42.3917 63.9327 44.9623 61.4946 45.7107L52.4167 49H90.7849C93.0223 49 95.0727 50.5014 95.4947 52.6827C96.0651 55.6227 93.8104 58.1875 90.9584 58.1875H66.2917C65.4403 58.1875 64.75 58.8731 64.75 59.7188C64.75 60.5644 65.4403 61.25 66.2917 61.25H96.9516C99.1889 61.25 101.239 62.7514 101.661 64.9327C102.232 67.8727 99.9771 70.4375 97.125 70.4375H66.2917C65.4403 70.4375 64.75 71.1231 64.75 71.9688C64.75 72.8144 65.4403 73.5 66.2917 73.5H90.7849C93.0223 73.5 95.0727 75.0014 95.4947 77.1827C96.0651 80.1227 93.8104 82.6875 90.9584 82.6875H66.2917C65.4403 82.6875 64.75 83.3731 64.75 84.2188C64.75 85.0644 65.4403 85.75 66.2917 85.75H84.6182C86.8556 85.75 88.906 87.2514 89.328 89.4327C89.8985 92.3727 87.6438 94.9375 84.7917 94.9375H44.7084C42.2205 94.9375 39.8502 94.5005 37.6205 93.751C36.8776 93.5012 36.0658 93.9117 35.768 94.6324C35.7639 94.6417 35.7722 94.6231 35.768 94.6324C35.4375 95.4275 35.8106 96.3711 36.6314 96.646C39.2547 97.5215 41.9719 98 44.7084 98H84.5797C86.1632 98 87.7498 97.6093 89.0621 96.73C91.7292 94.9427 92.9471 91.8606 92.3651 88.8537C92.1339 87.7023 91.6328 86.6496 90.7849 85.75C93.0916 85.75 95.2673 84.7357 96.7377 82.967C98.2078 81.1991 98.7977 78.8804 98.3576 76.6046C98.3005 75.4523 97.7995 74.3996 96.9516 73.5C99.2583 73.5 101.434 72.4857 102.904 70.717C104.375 68.9491 104.964 66.6304 104.524 64.3546C104.005 60.8289 100.844 58.2641 96.9516 58.1875ZM12.1522 67.7961C10.3619 64.523 9.31361 60.8098 9.25002 56.8668V35.2953C9.2839 32.7515 11.4893 30.7264 14.0311 30.7264C16.5884 30.7451 18.6638 32.8147 18.6465 35.3508L19.0477 44.9288L30.6063 8.59988C31.2292 6.6418 33.0364 5.21965 35.0618 5.21965C35.2266 5.21965 35.3934 5.22899 35.5609 5.24844C38.5498 5.59431 40.3381 8.50043 39.4786 11.2031L32.6834 32.5582C32.2016 33.5344 33.1266 34.5488 34.1672 34.5488C34.8417 34.5297 35.4198 34.1086 35.6318 33.477L44.2285 6.45039C44.8432 4.48465 46.6547 3.0625 48.6781 3.0625C48.8434 3.0625 49.0098 3.07184 49.1773 3.09129C52.1662 3.43716 53.9545 6.34328 53.095 9.04594L46.9438 28.443C46.5776 29.6297 47.6953 30.7398 48.8709 30.3762C49.3526 30.223 49.738 29.8402 49.8922 29.3617L54.1299 15.9709C54.7527 14.0129 56.5599 12.5907 58.5853 12.5907C58.7505 12.5907 58.9169 12.6 59.0844 12.6195C62.0733 12.9654 63.8616 15.8715 63.0022 18.5741L60.7166 25.7576C60.4334 26.6629 61.05 27.5816 61.9943 27.7156C62.0044 27.7171 61.9838 27.7141 61.9943 27.7156C62.7268 27.8278 63.4411 27.3803 63.6643 26.6782L64.0374 25.5051C64.6606 23.547 66.4674 22.1248 68.4928 22.1248C68.6577 22.1248 68.8244 22.1342 68.9919 22.1536C71.9808 22.4995 73.7692 25.4056 72.9097 28.1083L71.5189 32.4819C71.3789 32.9223 71.4734 33.4104 71.7278 33.7969C71.7357 33.8088 71.7203 33.7845 71.7278 33.7969C72.4229 34.8601 74.0673 34.6385 74.4508 33.4299L75.7812 29.2477C76.2586 27.7475 76.3624 26.1278 75.9152 24.6176C75.0054 21.5494 72.4118 19.4669 69.3477 19.1108C69.061 19.0776 68.7752 19.0615 68.4919 19.0615C67.6116 19.0615 66.7504 19.2211 65.9404 19.5161C66.6355 17.3302 66.3195 14.9568 65.0646 13.0312C63.8104 11.1076 61.7616 9.85007 59.4452 9.58019C59.1584 9.54692 58.8727 9.53084 58.5894 9.53084C57.7087 9.53084 56.8475 9.69048 56.0379 9.98582C56.3981 8.77938 56.5332 7.47648 56.2807 6.24383C55.5771 2.80219 52.8214 0.429516 49.5261 0.0493445C49.2563 0.0160781 48.9672 0 48.6781 0C45.4214 0 42.4151 2.19352 41.336 5.35746C40.0702 3.59748 38.1139 2.45383 35.9151 2.19926C35.6318 2.16672 35.3427 2.14949 35.0537 2.14949C31.7333 2.14911 28.6924 4.41957 27.6575 7.66965L20.2922 30.8547C18.9047 28.9598 16.6365 27.6773 14.0716 27.6582C9.75106 27.6582 6.2245 31.0633 6.16861 35.2494L6.16669 56.8668C6.23782 61.3113 7.41178 65.505 9.46585 69.2125C10.2251 70.5906 12.3334 70.0547 12.3334 68.4852C12.3334 68.2555 12.2698 68.0066 12.1522 67.7961ZM83.25 18.375C88.3568 18.375 92.5 14.2617 92.5 9.1875C92.5 4.11332 88.3568 0 83.25 0C78.1432 0 74 4.11332 74 9.1875C74 14.2617 78.1432 18.375 83.25 18.375ZM83.25 3.0625C86.6494 3.0625 89.4167 5.81109 89.4167 9.1875C89.4167 12.5639 86.6494 15.3125 83.25 15.3125C79.8506 15.3125 77.0834 12.5639 77.0834 9.1875C77.0834 5.81109 79.8584 3.0625 83.25 3.0625Z" fill="#73AB25"/>
</svg>
